# xmcd
#
# Track frame offsets:
# 150
# 14021
# 26684
# 42621
# 59582
# 75407
# 95346
# 115285
# 136300
# 163260
# 179381
#
# Disc length: 2617 seconds
#
#
# Revision: 0
# Processed by: cddbd v1.5.2PL0 Copyright (c) Steve Scherf et al.
# Submitted via: FreeRIP 2.945 
#
DISCID=960a370b
DTITLE=the black keys - majic potion
DYEAR=1900
DGENRE=Alt. Rock
TTITLE0=Just Got To Be
TTITLE1=Your Touch
TTITLE2=You're The One
TTITLE3=Just A Little Heat
TTITLE4=Give Your Heart Away
TTITLE5=Strange Desire
TTITLE6=Modern Times
TTITLE7=The Flame
TTITLE8=Goodbye Babylon
TTITLE9=Black Door
TTITLE10=Elevator
EXTD=
EXTT0=
EXTT1=
EXTT2=
EXTT3=
EXTT4=
EXTT5=
EXTT6=
EXTT7=
EXTT8=
EXTT9=
EXTT10=
PLAYORDER=
